# xmcd CD database file
# Copyright (C) 1995-1998 Ti Kan
#
# Track frame offsets:
#	150
#	25135
#	44250
#
# Disc length: 831 seconds
#
# Revision: 1
# Processed by: cddbd v1.5PL3 Copyright (c) Steve Scherf et al.
# Submitted via: CDex 1.3.1JRelease
#
DISCID=1b033d03
DTITLE=Sound Schedule - ことばさがし
DYEAR=2003
DGENRE=Rock
TTITLE0=ことばさがし
TTITLE1=燃やせ煩悩
TTITLE2=ペンネの女
EXTD=YEAR: 2003 ID3G:  17
EXTT0=
EXTT1=
EXTT2=
PLAYORDER=
